<svg viewBox="0 0 124 234" fill="none" xmlns="http://www.w3.org/2000/svg"><path d="M65.4134 64.8C83.3074 64.8 97.8134 50.294 97.8134 32.4C97.8134 14.506 83.3074 0 65.4134 0C47.5193 0 33.0134 14.506 33.0134 32.4C33.0134 50.294 47.5193 64.8 65.4134 64.8Z" fill="#1C5E89"/><path opacity="0.2085" d="M87.3507 8.6626L56.4132 31.7251L58.4382 34.4251L89.7132 11.0251C89.0382 10.2376 88.2507 9.4501 87.3507 8.6626Z" fill="black"/><path fill-rule="evenodd" clip-rule="evenodd" d="M55.7382 151.875H74.5257C75.2007 151.875 75.7632 152.438 75.7632 153.113V218.025C75.7632 218.7 75.2007 219.262 74.5257 219.262H55.7382C55.0632 219.262 54.5007 218.7 54.5007 218.025V153.113C54.3882 152.438 54.9507 151.875 55.7382 151.875Z" fill="#1C5E89"/><path fill-rule="evenodd" clip-rule="evenodd" d="M63.1634 92.25H66.9884C89.1509 92.25 107.151 110.25 107.151 132.412C107.151 154.575 89.1509 172.575 66.9884 172.575H63.1634C41.0009 172.575 23.0009 154.575 23.0009 132.412C22.8884 110.25 40.8884 92.25 63.1634 92.25Z" fill="#D93868"/><path d="M27.5008 151.087C34.2508 163.912 47.6383 172.687 63.1633 172.687H66.9883C82.5133 172.687 95.9008 163.912 102.651 151.087H27.5008Z" fill="#1C5E89"/><path fill-rule="evenodd" clip-rule="evenodd" d="M91.8509 97.9873L109.626 104.062C116.713 106.425 120.426 114.075 118.063 121.162C117.051 123.975 115.138 126.45 112.663 128.137L95.5634 139.275C91.0634 142.2 85.2134 142.312 80.4884 139.612L70.4759 133.65C63.7259 129.6 61.4759 120.937 65.5259 114.187C66.0884 113.287 66.7634 112.387 67.5509 111.6L77.1134 101.812C80.9384 97.6498 86.6759 96.2998 91.8509 97.9873Z" fill="#D93868"/><path fill-rule="evenodd" clip-rule="evenodd" d="M18.8383 84.6L3.65081 101.812C-1.52419 107.662 -0.961688 116.662 4.88831 121.837C5.56331 122.4 6.12581 122.85 6.91331 123.3L30.0883 137.475C34.0258 139.837 38.7508 140.175 43.0258 138.487L53.0383 134.325C60.2383 131.287 63.7258 122.962 60.6883 115.762C60.3508 114.975 59.9008 114.187 59.4508 113.4L41.4508 86.175C37.1758 79.65 28.2883 77.85 21.7633 82.125C20.6383 82.9125 19.6258 83.7 18.8383 84.6Z" fill="#D93868"/><path d="M58.3259 118.125C63.6071 118.125 67.8884 113.844 67.8884 108.563C67.8884 103.281 63.6071 99 58.3259 99C53.0446 99 48.7634 103.281 48.7634 108.563C48.7634 113.844 53.0446 118.125 58.3259 118.125Z" fill="#FEE781"/><path fill-rule="evenodd" clip-rule="evenodd" d="M51.5759 34.65L65.1884 24.75L78.6884 34.65C83.1884 37.9125 85.8884 43.2 85.8884 48.825V94.5H44.2634V48.9375C44.2634 43.2 46.9634 37.9125 51.5759 34.65Z" fill="#C6775B"/><path fill-rule="evenodd" clip-rule="evenodd" d="M29.6384 154.688H100.401C102.201 151.875 103.776 148.95 104.901 145.688H25.1384C26.2634 148.837 27.7259 151.875 29.6384 154.688Z" fill="#0D3A56"/><path d="M44.9384 145.688H40.3259V155.137H44.9384V145.688Z" fill="#1C5E89"/><path d="M90.3884 145.688H85.7759V155.137H90.3884V145.688Z" fill="#1C5E89"/><path fill-rule="evenodd" clip-rule="evenodd" d="M58.2134 145.688H72.1634C72.5009 145.688 72.7259 145.912 72.7259 146.25V154.238C72.7259 154.575 72.5009 154.8 72.1634 154.8H58.2134C57.8759 154.8 57.6509 154.575 57.6509 154.238V146.25C57.7634 145.912 57.9884 145.688 58.2134 145.688Z" fill="#DCDADA"/><path d="M49.7759 118.8C49.2134 118.8 48.7634 118.575 48.4259 118.238L44.1509 113.85C43.3634 113.063 43.3634 111.825 44.1509 111.15C44.9384 110.363 46.1759 110.363 46.8509 111.15L49.7759 114.075L52.7009 111.15C53.4884 110.363 54.6134 110.363 55.4009 111.15C56.1884 111.938 56.1884 113.063 55.4009 113.85L51.1259 118.238C50.7884 118.575 50.3384 118.8 49.7759 118.8Z" fill="#C5305C"/><path d="M49.7759 129.825C49.2134 129.825 48.7634 129.6 48.4259 129.263L44.1509 124.875C43.3634 124.088 43.3634 122.85 44.1509 122.175C44.9384 121.388 46.1759 121.388 46.8509 122.175L49.7759 125.1L52.7009 122.175C53.4884 121.388 54.6134 121.388 55.4009 122.175C56.1884 122.963 56.1884 124.088 55.4009 124.875L51.1259 129.263C50.7884 129.713 50.3384 129.825 49.7759 129.825Z" fill="#C5305C"/><path d="M80.4882 118.8C79.9257 118.8 79.4757 118.575 79.1382 118.238L74.8632 113.85C74.0757 113.063 74.0757 111.825 74.8632 111.15C75.6507 110.363 76.8882 110.363 77.5632 111.15L80.4882 114.075L83.4132 111.15C84.2007 110.363 85.3257 110.363 86.1132 111.15C86.9007 111.938 86.9007 113.063 86.1132 113.85L81.8382 118.238C81.5007 118.575 80.9382 118.8 80.4882 118.8Z" fill="#C5305C"/><path d="M80.4882 129.825C79.9257 129.825 79.4757 129.6 79.1382 129.263L74.8632 124.875C74.0757 124.088 74.0757 122.85 74.8632 122.175C75.6507 121.388 76.8882 121.388 77.5632 122.175L80.4882 125.1L83.4132 122.175C84.2007 121.388 85.3257 121.388 86.1132 122.175C86.9007 122.963 86.9007 124.088 86.1132 124.875L81.8382 129.263C81.5007 129.713 80.9382 129.825 80.4882 129.825Z" fill="#C5305C"/><path d="M65.6383 118.8C65.0758 118.8 64.6258 118.575 64.2883 118.238L60.0133 113.85C59.2258 113.063 59.2258 111.825 60.0133 111.15C60.8008 110.363 62.0383 110.363 62.7133 111.15L65.6383 114.075L68.5633 111.15C69.3508 110.363 70.4758 110.363 71.2633 111.15C72.0508 111.938 72.0508 113.063 71.2633 113.85L66.9883 118.238C66.6508 118.575 66.0883 118.8 65.6383 118.8Z" fill="#C5305C"/><path d="M65.6383 129.825C65.0758 129.825 64.6258 129.6 64.2883 129.263L60.0133 124.875C59.2258 124.088 59.2258 122.85 60.0133 122.175C60.8008 121.388 62.0383 121.388 62.7133 122.175L65.6383 125.1L68.5633 122.175C69.3508 121.388 70.4758 121.388 71.2633 122.175C72.0508 122.963 72.0508 124.088 71.2633 124.875L66.9883 129.263C66.6508 129.713 66.0883 129.825 65.6383 129.825Z" fill="#C5305C"/><path fill-rule="evenodd" clip-rule="evenodd" d="M49.3259 218.25H80.8259C82.9634 218.25 84.7634 220.05 84.7634 222.188C84.7634 224.325 82.9634 226.125 80.8259 226.125H49.3259C47.1884 226.125 45.3884 224.325 45.3884 222.188C45.3884 220.05 47.1884 218.25 49.3259 218.25Z" fill="#3D3D3D"/><path fill-rule="evenodd" clip-rule="evenodd" d="M71.0383 36.7876C74.1883 36.7876 76.7758 39.3751 76.7758 42.5251V47.1376C76.7758 50.2876 74.1883 52.8751 71.0383 52.8751C67.8883 52.8751 65.3008 50.4001 65.3008 47.1376V42.5251C65.3008 39.3751 67.8883 36.7876 71.0383 36.7876Z" fill="white"/><path fill-rule="evenodd" clip-rule="evenodd" d="M56.9758 36.7876C53.8258 36.7876 51.2383 39.3751 51.2383 42.5251V47.1376C51.2383 50.2876 53.8258 52.8751 56.9758 52.8751C60.1258 52.8751 62.7133 50.2876 62.7133 47.1376V42.5251C62.8258 39.3751 60.2383 36.7876 56.9758 36.7876Z" fill="white"/><path fill-rule="evenodd" clip-rule="evenodd" d="M57.9884 40.9502C56.6384 40.9502 55.5134 42.0752 55.5134 43.4252V46.4627C55.5134 47.8127 56.6384 48.9377 57.9884 48.9377C59.3384 48.9377 60.4634 47.8127 60.4634 46.4627V43.4252C60.4634 41.9627 59.3384 40.9502 57.9884 40.9502Z" fill="#4C4B4C"/><path fill-rule="evenodd" clip-rule="evenodd" d="M69.9133 41.1748C68.5633 41.1748 67.4383 42.2998 67.4383 43.6498V46.6873C67.4383 48.0373 68.5633 49.1623 69.9133 49.1623C71.2633 49.1623 72.3883 48.0373 72.3883 46.6873V43.6498C72.3883 42.2998 71.2633 41.1748 69.9133 41.1748Z" fill="#4C4B4C"/><path d="M70.0257 59.5125L65.4132 53.6625C68.6757 51.075 73.1757 49.275 78.8007 48.375L80.0382 55.6875C75.6507 56.475 72.2757 57.7125 70.0257 59.5125Z" fill="#C6775C"/><path fill-rule="evenodd" clip-rule="evenodd" d="M49.3259 56.25H79.7009C87.4634 56.25 93.7634 62.55 93.7634 70.3125C93.7634 78.075 87.4634 84.375 79.7009 84.375H49.3259C41.5634 84.375 35.2634 78.075 35.2634 70.3125C35.2634 62.55 41.5634 56.25 49.3259 56.25Z" fill="#3D3D3D"/><path fill-rule="evenodd" clip-rule="evenodd" d="M44.1509 92.25H87.2384C88.3634 92.25 89.2634 93.15 89.2634 94.275V95.7375C89.2634 96.8625 88.3634 97.7625 87.2384 97.7625H44.1509C43.0259 97.7625 42.1259 96.8625 42.1259 95.7375V94.275C42.0134 93.15 42.9134 92.25 44.1509 92.25Z" fill="#D93868"/><path d="M69.0134 118.125C75.2266 118.125 80.2634 113.088 80.2634 106.875C80.2634 100.662 75.2266 95.625 69.0134 95.625C62.8002 95.625 57.7634 100.662 57.7634 106.875C57.7634 113.088 62.8002 118.125 69.0134 118.125Z" fill="#FEE781"/><path fill-rule="evenodd" clip-rule="evenodd" d="M46.5134 104.625H82.5134V108C82.5134 117.9 74.4134 126 64.5134 126C54.6134 126 46.5134 117.9 46.5134 108V104.625Z" fill="white"/><path fill-rule="evenodd" clip-rule="evenodd" d="M71.4884 128.7L68.3384 124.2C66.8759 122.175 67.3259 119.362 69.3509 117.9C71.3759 116.437 74.0759 116.887 75.5384 118.8L78.6884 123.3C80.1509 125.325 79.7009 128.137 77.6759 129.6C75.7634 131.175 72.9509 130.725 71.4884 128.7Z" fill="#C6775B"/><path opacity="0.4641" d="M120.538 234H15.2382C13.4382 234 11.9757 232.538 11.9757 230.738C11.9757 228.938 13.4382 227.475 15.2382 227.475H120.538C122.338 227.475 123.801 228.938 123.801 230.738C123.801 232.538 122.338 234 120.538 234Z" fill="#979796"/><path fill-rule="evenodd" clip-rule="evenodd" d="M61.7009 52.875H66.2009C67.7759 52.875 69.0134 54.1125 69.0134 55.6875C69.0134 57.2625 67.7759 58.5 66.2009 58.5H61.7009C60.1259 58.5 58.8884 57.2625 58.8884 55.6875C58.8884 54.1125 60.1259 52.875 61.7009 52.875Z" fill="#C6775B"/><path fill-rule="evenodd" clip-rule="evenodd" d="M59.4509 123.75H75.2009C77.3384 123.75 79.1384 125.55 79.1384 127.688C79.1384 129.825 77.3384 131.625 75.2009 131.625H59.4509C57.3134 131.625 55.5134 129.825 55.5134 127.688C55.5134 125.55 57.3134 123.75 59.4509 123.75Z" fill="#C6775B"/><path fill-rule="evenodd" clip-rule="evenodd" d="M12.8757 60.7499L50.1132 92.0249C50.9007 92.6999 51.0132 93.9373 50.3382 94.7248C49.6632 95.5123 48.4257 95.6249 47.6382 94.9499L10.4007 63.6749C9.6132 62.9999 9.5007 61.7624 10.1757 60.9749C10.8507 60.1874 12.0882 60.0749 12.8757 60.7499Z" fill="#DAB083"/><path fill-rule="evenodd" clip-rule="evenodd" d="M17.2634 52.6503L50.1134 91.8003C50.7884 92.5878 50.6759 93.8253 49.8884 94.5003C49.1009 95.1753 47.8634 95.0628 47.1884 94.2753L14.3384 55.0128C13.6634 54.2253 13.7759 52.9878 14.5634 52.3128C15.3509 51.6378 16.5884 51.7503 17.2634 52.6503Z" fill="#DAB083"/><path fill-rule="evenodd" clip-rule="evenodd" d="M65.6384 67.5C66.3134 67.5 66.7634 67.95 66.7634 68.625V88.875C66.7634 89.4375 66.3134 90 65.6384 90H65.5259C64.9634 90 64.4009 89.55 64.4009 88.875V68.625C64.5134 67.95 65.0759 67.5 65.6384 67.5Z" fill="#FEE781"/><path fill-rule="evenodd" clip-rule="evenodd" d="M69.0134 66.375C69.6884 66.375 70.1384 66.825 70.1384 67.5V103.5C70.1384 104.062 69.6884 104.625 69.0134 104.625H68.9009C68.3384 104.625 67.7759 104.175 67.7759 103.5V67.5C67.8884 66.825 68.4509 66.375 69.0134 66.375Z" fill="#FEE781"/><path fill-rule="evenodd" clip-rule="evenodd" d="M70.1384 65.25C70.8134 65.25 71.2634 65.7 71.2634 66.375V96.75C71.2634 97.3125 70.8134 97.875 70.1384 97.875H70.0259C69.4634 97.875 68.9009 97.425 68.9009 96.75V66.375C69.0134 65.7 69.5759 65.25 70.1384 65.25Z" fill="#FEE781"/><path fill-rule="evenodd" clip-rule="evenodd" d="M74.6384 65.25C75.3134 65.25 75.7634 65.7 75.7634 66.375V112.5C75.7634 113.062 75.3134 113.625 74.6384 113.625H74.5259C73.9634 113.625 73.4009 113.175 73.4009 112.5V66.375C73.5134 65.7 74.0759 65.25 74.6384 65.25Z" fill="#FEE781"/><path d="M63.0507 71.8877C62.8257 71.8877 62.6007 71.7752 62.3757 71.6627C61.9257 71.3252 61.8132 70.5377 62.2632 70.0877C65.7507 65.7002 70.9257 63.6752 77.5632 63.9002C78.1257 63.9002 78.6882 64.4627 78.5757 65.0252C78.5757 65.5877 78.0132 66.0377 77.4507 66.0377C71.3757 65.8127 66.9882 67.6127 63.9507 71.4377C63.6132 71.7752 63.3882 71.8877 63.0507 71.8877Z" fill="#262525"/><path fill-rule="evenodd" clip-rule="evenodd" d="M28.0634 77.625H35.8259C39.3134 77.625 42.1259 80.4375 42.1259 83.925C42.1259 84.2625 42.1259 84.6 42.0134 84.9375L41.1134 90.3375C40.6634 93.375 37.9634 95.625 34.9259 95.625H28.0634C24.5759 95.625 21.7634 92.8125 21.7634 89.325V83.925C21.7634 80.4375 24.5759 77.625 28.0634 77.625Z" fill="#C6775C"/><path fill-rule="evenodd" clip-rule="evenodd" d="M36.8384 77.625H42.6884C44.8259 77.625 46.5134 79.3125 46.5134 81.45V81.675C46.5134 83.8125 44.8259 85.5 42.6884 85.5H36.8384C34.7009 85.5 33.0134 83.8125 33.0134 81.675V81.45C33.0134 79.3125 34.7009 77.625 36.8384 77.625Z" fill="#C6775C"/></svg>