<svg width="86" height="86" viewBox="0 0 86 86" fill="none" xmlns="http://www.w3.org/2000/svg"><g clip-path="url(#clip0_1214_738)"><path d="M18.8465 84.0039H18.8484H67.1518C76.4597 84.0039 83.9962 76.4583 83.9962 67.1593V18.8483C83.9962 9.54155 76.4597 2.00391 67.1594 2.00391H18.8484C9.54095 2.00391 2.00397 9.54089 2.00397 18.8483V67.1517C2.00397 76.4593 9.54089 83.9951 18.8465 84.0039Z" fill="#50C800" stroke="white" stroke-width="4"/><path fill-rule="evenodd" clip-rule="evenodd" d="M81.9988 54.3866V31.8268C81.1155 29.6714 79.813 27.7292 78.198 26.0993C78.3429 23.6772 77.8021 21.2247 76.5452 19.0388C75.723 17.6069 73.7349 17.4013 72.6228 18.6351L70.1017 21.4304C70.0868 21.4228 70.0712 21.4228 70.0562 21.4152C70.3838 18.8637 69.9496 16.2284 68.7005 13.8749C67.9235 12.4125 66.2403 12.1536 65.0826 13.3417L52.9725 25.6118C52.8354 25.7413 52.6907 25.8783 52.5536 26.0155C52.546 26.0231 52.5308 26.0307 52.5231 26.0383C47.2602 30.8062 39.0573 31.0042 34.0457 26.6248C33.7334 26.282 33.4059 25.9545 33.0632 25.6346L20.9302 13.3493C19.7725 12.1612 18.0893 12.4201 17.3124 13.8825C16.0709 16.2284 15.6292 18.8484 15.9491 21.3847C15.9262 21.3923 15.9034 21.3923 15.8805 21.3999L13.3899 18.6351C12.278 17.4013 10.2901 17.6069 9.45988 19.0388C8.22602 21.179 7.68525 23.5782 7.7995 25.9545C6.20766 27.5235 4.91287 29.3972 3.9989 31.4764V54.7446C6.7332 60.9825 12.9635 65.3467 20.2067 65.3467H20.9835C28.1658 65.3467 34.3504 61.0586 37.1151 54.9046C39.7733 54.8894 41.7002 54.8817 42.896 54.8817C45.4856 54.8741 47.5039 54.8741 48.951 54.8741C51.7082 61.0434 57.908 65.3467 65.0979 65.3467H65.6462C73.0264 65.3467 79.3483 60.8149 81.9988 54.3866Z" fill="#8EE000"/><path fill-rule="evenodd" clip-rule="evenodd" d="M21.3035 27.1577C28.0973 27.1577 33.6116 32.6644 33.6116 39.4659V46.7548C33.6116 53.5487 28.1049 59.063 21.3035 59.063C14.5096 59.063 8.9953 53.5563 8.9953 46.7548V39.4659C8.9953 32.6644 14.5096 27.1577 21.3035 27.1577Z" fill="white"/><path fill-rule="evenodd" clip-rule="evenodd" d="M64.5416 27.1577C71.3357 27.1577 76.8497 32.6644 76.8497 39.4659V46.7548C76.8497 53.5487 71.3428 59.063 64.5416 59.063C57.7478 59.063 52.2335 53.5563 52.2335 46.7548V39.4659C52.2335 32.6644 57.7402 27.1577 64.5416 27.1577Z" fill="white"/><path fill-rule="evenodd" clip-rule="evenodd" d="M23.1998 34.2261C26.4216 34.2261 29.0416 36.8385 29.0416 40.0679V46.3057C29.0416 49.5274 26.4292 52.1475 23.1998 52.1475C19.9781 52.1475 17.358 49.5351 17.358 46.3057V40.0679C17.358 36.8385 19.9781 34.2261 23.1998 34.2261Z" fill="#4B4B4B"/><path fill-rule="evenodd" clip-rule="evenodd" d="M43.003 48.3867C46.697 48.3867 49.6903 51.38 49.6903 55.074V57.397C49.6903 61.0909 46.697 64.0842 43.003 64.0842C39.3091 64.0842 36.3159 61.0909 36.3159 57.397V55.074C36.3159 51.38 39.3091 48.3867 43.003 48.3867Z" fill="#F48000"/><path d="M33.772 55.7137C34.5718 51.4485 38.5247 48.3715 43.2545 48.3715C47.5577 48.3715 51.4497 51.5247 52.2343 55.7137V56.0565C52.2343 56.323 52.1428 56.4297 51.8991 56.3992L43.2621 57.9377C43.026 57.9377 42.9955 57.9377 42.7518 57.9377L34.1071 56.3916C33.8634 56.4221 33.772 56.3154 33.772 56.0489V55.7137Z" fill="#FFC200"/><path fill-rule="evenodd" clip-rule="evenodd" d="M41.5867 49.8491C42.0361 49.7424 42.5007 49.6815 42.9653 49.6815C43.4604 49.6815 43.9631 49.7424 44.4581 49.8719C45.4635 50.1309 46.1642 51.0372 46.1642 52.0731C46.1642 52.9109 45.4863 53.5811 44.6561 53.5811H41.3506C40.5128 53.5811 39.8425 52.9032 39.8425 52.0731C39.8349 51.022 40.5585 50.1004 41.5867 49.8491Z" fill="#FFE747"/><path fill-rule="evenodd" clip-rule="evenodd" d="M62.6452 34.2261C65.8669 34.2261 68.487 36.8385 68.487 40.0679V46.3057C68.487 49.5274 65.8746 52.1475 62.6452 52.1475C59.4234 52.1475 56.8034 49.5351 56.8034 46.3057V40.0679C56.811 36.8385 59.4234 34.2261 62.6452 34.2261Z" fill="#4B4B4B"/><path d="M18.2643 41.3096C20.3465 41.3096 22.0344 39.6285 22.0344 37.5547C22.0344 35.4809 20.3465 33.7998 18.2643 33.7998C16.1821 33.7998 14.4941 35.4809 14.4941 37.5547C14.4941 39.6285 16.1821 41.3096 18.2643 41.3096Z" fill="white"/><path d="M57.1385 41.3096C59.2207 41.3096 60.9086 39.6285 60.9086 37.5547C60.9086 35.4809 59.2207 33.7998 57.1385 33.7998C55.0564 33.7998 53.3684 35.4809 53.3684 37.5547C53.3684 39.6285 55.0564 41.3096 57.1385 41.3096Z" fill="white"/></g><defs><clipPath id="clip0_1214_738"><rect width="86" height="86" rx="15.6364" fill="white"/></clipPath></defs></svg>