<svg width="483" height="353" viewBox="0 0 483 353" fill="none" xmlns="http://www.w3.org/2000/svg"><path d="M118.961 81.9853L174.595 26.9979C177.574 24.0503 182.551 24.8679 184.418 28.6125C193.389 46.603 189.768 68.728 175.069 83.2559C160.375 97.7836 138.252 101.1 120.435 91.8544C116.726 89.9301 115.983 84.9329 118.961 81.9853Z" fill="#58CC02"/><path d="M25.3785 72.6285L103.601 73.083C107.791 73.1071 110.732 77.2026 109.403 81.1702C103.023 100.235 84.8213 113.321 64.1553 113.2C43.4892 113.08 25.5026 99.7851 19.4408 80.6478C18.179 76.6646 21.1884 72.6044 25.3785 72.6285Z" fill="#58CC02"/><path d="M69.4341 23.406C91.8209 24.5277 106.113 24.3367 112.306 22.8327C115.848 21.974 119.17 19.5725 122.281 15.6288C128.269 8.02752 139.285 6.72111 146.886 12.7115C149.978 15.1455 152.156 18.5466 153.077 22.3687L165.437 73.6543C172.174 101.596 155.007 129.713 127.077 136.492C99.2031 143.257 71.1223 126.145 64.3573 98.2708C64.3502 98.2445 64.3476 98.2182 64.3405 98.1915L51.5208 45.0135C49.255 35.6053 55.0426 26.1398 64.4495 23.8721C66.0805 23.4789 67.7574 23.3223 69.4341 23.406Z" fill="#58CC02"/><path d="M108.167 39.5581C113.612 43.2324 120.454 40.7414 123.099 35.8844C127.231 28.4912 130.381 37.3194 132.543 62.3691L111.582 67.458C105.672 46.4084 104.535 37.1087 108.167 39.5581Z" fill="#89E117"/><path d="M89.1448 36.5205L90.5889 36.1707C101.03 33.6368 111.548 40.0466 114.079 50.4874C114.082 50.4973 114.086 50.5073 114.09 50.5176L116.842 61.9487C119.359 72.382 112.951 82.8812 102.519 85.4122L101.08 85.7618C90.6387 88.2958 80.1204 81.8863 77.5855 71.4452C77.5817 71.4353 77.5824 71.4257 77.5786 71.4154L74.8219 59.9839C72.3093 49.551 78.7177 39.0518 89.1448 36.5205Z" fill="#89E117"/><path d="M90.9806 27.7867L110.179 40.6484C111.19 41.3417 111.232 42.8217 110.262 43.5707C105.595 47.1703 99.0396 47.3723 94.0515 43.9538C89.0679 40.5353 86.8844 34.3453 88.5492 28.6883C88.8967 27.5106 89.9654 27.0926 90.9806 27.7867Z" fill="#89E117"/><path d="M84.5207 33.6189L103.415 46.5686C104.425 47.2623 104.467 48.7424 103.497 49.4918C98.8259 53.0902 92.2704 53.2903 87.2778 49.8692C82.2899 46.4481 80.1066 40.2567 81.7714 34.5987C82.1143 33.4208 83.51 32.9251 84.5207 33.6189Z" fill="#89E117"/><path d="M127.096 18.9589L128.045 37.7947C128.11 38.794 129.345 39.428 130.494 39.0477C135.991 37.2183 139.58 32.6665 139.267 27.7419C138.953 22.8172 134.818 18.7449 129.131 17.6098C127.948 17.3738 127.031 17.9595 127.096 18.9589Z" fill="#89E117"/><path d="M134.317 21.0603L135.5 39.7128C135.565 40.7126 136.8 41.3471 137.949 40.9664C143.446 39.136 147.03 34.5811 146.717 29.6533C146.409 24.7254 142.269 20.6499 136.583 19.514C135.399 19.2775 134.252 20.0605 134.317 21.0603Z" fill="#89E117"/><path d="M134.682 25.5232C142.88 23.5333 151.138 28.5661 153.13 36.7649C153.129 36.7722 153.133 36.7803 153.137 36.7884L157.836 56.2973C159.817 64.5154 154.768 72.7852 146.556 74.7791C138.359 76.7689 130.096 71.7358 128.109 63.5374C128.105 63.5297 128.106 63.522 128.102 63.5139L123.398 44.0046C121.417 35.7864 126.466 27.5166 134.682 25.5232Z" fill="#89E117"/><path d="M134.848 33.0666C140.985 31.5821 147.161 35.3534 148.647 41.4902L151.983 55.2828C153.464 61.4192 149.695 67.5976 143.559 69.0816C137.423 70.5661 131.242 66.7944 129.761 60.6576L126.425 46.8654C124.939 40.7287 128.712 34.5506 134.848 33.0666Z" fill="white"/><path d="M140.179 44.9952L140.142 45.0679C139.671 46.0531 139.519 47.2026 139.797 48.3495C140.434 50.9825 143.079 52.6016 145.706 51.9663L145.748 51.9554L147.529 58.7831C148.296 61.7449 146.522 64.771 143.56 65.5423C140.597 66.314 137.574 64.5383 136.802 61.5771L134.285 51.9097C133.514 48.9476 135.288 45.921 138.25 45.1498C138.901 44.9811 139.551 44.9344 140.179 44.9952Z" fill="#4B4B4B"/><path d="M141.633 65.6992L141.671 65.6264C142.141 64.6413 142.294 63.4917 142.015 62.3448C141.379 59.7118 138.733 58.0928 136.107 58.728L136.065 58.739L134.284 51.9112C133.516 48.9495 135.29 45.9233 138.253 45.1521C141.216 44.3804 144.239 46.156 145.011 49.1172L147.527 58.7846C148.299 61.7467 146.525 64.7733 143.562 65.5446C142.912 65.7132 142.261 65.7599 141.633 65.6992Z" fill="#4B4B4B"/><path d="M139.611 107.729C139.146 110.909 136.554 113.531 133.153 114.167C129.756 114.805 126.395 113.299 124.813 110.502C124.486 109.921 124.854 109.191 125.543 109.061L138.41 106.65C139.098 106.521 139.708 107.067 139.611 107.729ZM126.355 98.9817C125.89 102.161 123.299 104.783 119.902 105.42C116.5 106.057 113.14 104.551 111.562 101.755C111.231 101.173 111.599 100.443 112.292 100.314L125.154 97.9027C125.843 97.7732 126.452 98.3196 126.355 98.9817ZM147.603 95.0064C147.138 98.1865 144.547 100.808 141.149 101.445C137.748 102.082 134.387 100.576 132.809 97.7799C132.478 97.1976 132.846 96.4678 133.539 96.3391L146.402 93.9274C147.091 93.7983 147.7 94.3447 147.603 95.0064Z" fill="#89E117"/><path d="M92.1056 42.9247C99.7658 41.0654 107.485 45.7687 109.344 53.4294C109.343 53.4367 109.347 53.4439 109.347 53.4512L111.422 62.0618C113.275 69.7412 108.557 77.4687 100.883 79.3319C93.2179 81.1913 85.5035 76.4883 83.6443 68.8272C83.6402 68.82 83.6408 68.8127 83.6368 68.8055L81.5617 60.1949C79.7131 52.5154 84.4267 44.7876 92.1056 42.9247Z" fill="white"/><path d="M100.746 54.9635L100.741 54.98C100.569 55.3603 100.446 55.7686 100.372 56.1995C99.9318 58.8725 101.733 61.3966 104.4 61.8381C105.106 61.9549 105.797 61.9146 106.448 61.7422L107.804 67.3681C108.673 70.9698 106.458 74.594 102.86 75.4681C99.2656 76.3397 95.6471 74.1344 94.7726 70.541C94.7729 70.5378 94.7732 70.5342 94.7734 70.531L92.9898 63.139C92.1205 59.5373 94.335 55.9131 97.9338 55.039C98.8872 54.8079 99.8424 54.793 100.746 54.9635Z" fill="#4B4B4B"/><path d="M100.046 75.5414L100.052 75.5249C100.224 75.1446 100.347 74.7363 100.421 74.3054C100.861 71.6324 99.0604 69.1083 96.3931 68.6667C95.6866 68.55 94.9955 68.5903 94.3447 68.7626L92.9892 63.1368C92.12 59.5351 94.3345 55.9109 97.9333 55.0368C101.527 54.1652 105.146 56.3705 106.02 59.9638C106.02 59.967 106.02 59.9707 106.02 59.9739L107.803 67.3659C108.672 70.9676 106.458 74.5918 102.859 75.4658C101.906 75.697 100.951 75.7119 100.046 75.5414Z" fill="#4B4B4B"/><path d="M121.609 60.8296C125.926 59.8646 130.206 62.5823 131.172 66.8995L133.487 77.2728C134.453 81.5904 131.738 85.8724 127.417 86.8366C123.1 87.8017 118.819 85.084 117.854 80.7668L115.539 70.3935C114.573 66.0763 117.288 61.7939 121.609 60.8296Z" fill="#F49000"/><path d="M123.298 63.954C126.378 63.2665 129.43 65.204 130.119 68.2818L131.776 75.7122C132.465 78.7905 130.529 81.8431 127.449 82.531C124.374 83.2188 121.321 81.2813 120.632 78.2035L118.971 70.7727C118.286 67.6948 120.222 64.6422 123.298 63.954Z" fill="#A56644"/><path fill-rule="evenodd" clip-rule="evenodd" d="M129.017 81.8792L129.023 81.9205C128.544 82.1927 128.019 82.3994 127.449 82.5258C124.374 83.2136 121.322 81.2761 120.632 78.1983L120.448 77.3778C120.765 77.2504 121.099 77.1477 121.439 77.0703C124.86 76.3063 128.253 78.459 129.017 81.8792Z" fill="#FFAADE"/><path d="M114.116 68.9813C113.838 64.064 117.882 60.6907 122.824 59.5862C127.766 58.4821 132.739 61.0775 134.58 65.6451L134.707 65.9585L130.187 68.7365L114.135 69.319L114.116 68.9813Z" fill="#FFC200"/><path d="M122.308 64.524C121.615 64.9389 120.72 64.7145 120.306 64.0226C119.891 63.3307 120.116 62.4335 120.804 62.0182C122.478 61.0106 124.312 60.601 126.255 60.7997C127.056 60.8815 127.642 61.5986 127.562 62.4015C127.482 63.2043 126.763 63.7883 125.962 63.7069C124.647 63.5722 123.443 63.8413 122.308 64.524Z" fill="#FFDE00"/><path d="M173.241 119.487C170.486 116.492 165.827 116.296 162.831 119.05L154.302 126.89C151.307 129.643 151.113 134.302 153.864 137.296L153.863 137.297C156.619 140.291 161.277 140.486 164.273 137.734L172.802 129.892C175.798 127.14 175.991 122.481 173.241 119.488L173.241 119.487Z" fill="#F49000"/><path fill-rule="evenodd" clip-rule="evenodd" d="M153.4 227.929C179.033 217.071 183.63 191.203 180.812 176.764L204.042 172.229C208.181 193.432 202.066 233.019 162.632 249.723L153.4 227.929Z" fill="#FFAADE"/><path d="M188.771 180.576C197.75 182.715 206.763 177.169 208.902 168.19C211.041 159.21 205.495 150.197 196.516 148.058C187.536 145.919 178.523 151.465 176.384 160.444C174.246 169.424 179.791 178.437 188.771 180.576Z" fill="#DA8E74"/><path fill-rule="evenodd" clip-rule="evenodd" d="M171.763 133.918C175.058 132.32 179.024 133.696 180.622 136.99C181.668 139.148 183.552 143.942 185.232 148.927C186.878 153.81 188.632 159.752 189.058 163.997C189.423 167.64 186.767 170.89 183.123 171.256C179.48 171.621 176.231 168.964 175.865 165.321C175.605 162.729 174.32 158.066 172.668 153.162C171.049 148.36 169.374 144.184 168.691 142.776C167.094 139.482 168.469 135.516 171.763 133.918Z" fill="#DA8E74"/><path d="M172.213 173.585C171.38 169.722 173.835 165.915 177.697 165.082L182.985 163.94C186.847 163.106 190.654 165.561 191.488 169.423C192.322 173.286 189.867 177.093 186.005 177.927L180.717 179.068C176.854 179.902 173.047 177.447 172.213 173.585Z" fill="#DA8E74"/><path d="M116.606 175.665C131.722 171.045 140.23 155.045 135.61 139.93C131.058 125.037 115.461 116.559 100.545 120.73L100.543 120.722C89.862 123.987 83.2974 121.614 76.0275 112.157L76.0235 112.197C67.0638 101.475 52.2383 96.5586 38.0358 100.9C19.1105 106.684 8.45799 126.716 14.2426 145.641C14.9539 147.968 15.8805 150.17 16.994 152.232C7.30742 158.971 2.61352 171.424 6.24841 183.315C10.7559 198.062 26.3648 206.363 41.1118 201.856C55.1773 197.556 63.3787 183.158 60.1954 169.041C68.9141 166.039 75.7695 159.969 79.9158 152.419C80.1236 153.834 80.4403 155.251 80.8711 156.661C85.4914 171.777 101.49 180.285 116.606 175.665Z" fill="#3D3D3D"/><path fill-rule="evenodd" clip-rule="evenodd" d="M62.6305 139.377C31.3785 155.033 18.7352 193.059 34.3908 224.311C38.6172 232.748 39.8396 237.921 40.1192 240.893C40.3287 243.124 40.1969 245.485 38.4492 249.352C24.057 281.207 38.2125 318.696 70.0665 333.087C101.92 347.48 139.409 333.324 153.801 301.471C176.838 250.485 165.754 203.928 147.563 167.617C131.908 136.365 93.8824 123.722 62.6305 139.377Z" fill="#DA8E74"/><path d="M163.807 271.179L37.6008 251.327C24.6485 282.742 38.8695 318.995 70.0687 333.093C101.922 347.484 139.412 333.33 153.804 301.475C158.455 291.18 161.716 281.065 163.807 271.179Z" fill="#2BE69C"/><path d="M165.302 264.902L105.622 277.195L37.2576 257.269C36.9177 257.933 36.5261 258.63 36.0757 259.364C35.958 259.556 35.8418 259.747 35.7264 259.94C34.7101 262.98 33.9385 266.052 33.4023 269.136C64.8878 292.951 121.041 306.048 159.566 290.235C162.359 281.632 164.226 273.178 165.302 264.902Z" fill="#A56644"/><path d="M98.3939 281.326L90.8212 279.752L86.7734 299.224L94.3461 300.799L98.3939 281.326Z" fill="#2BE69C"/><path d="M166.648 236.192C155.529 246.031 119.073 255.768 38.4099 233.67C39.5119 236.887 39.9621 239.231 40.118 240.89C40.3277 243.121 40.1957 245.482 38.4482 249.35C36.7602 253.086 35.4647 259.239 34.5449 263.083C69.7509 277.669 126.113 294.193 162.974 277.188C166.17 263.864 167.215 248.6 166.648 236.192Z" fill="#FFAADE"/><path d="M153.394 305.367C161.212 303.977 166.482 296.463 165.166 288.582C163.849 280.702 156.445 275.44 148.627 276.83C140.81 278.22 135.539 285.734 136.856 293.615C138.172 301.495 145.577 306.756 153.394 305.367Z" fill="#FF9600"/><path d="M137.392 237.624L152.696 239.62L142.846 256.897C141.846 258.649 139.527 259.11 137.934 257.874L121.463 245.096L137.392 237.624Z" fill="#DA8E74"/><path d="M95.0831 197.968L136.639 199.446L115.376 229.486C113.064 232.751 109.386 234.779 105.391 234.99C97.1232 235.427 90.5352 228.169 91.768 219.982L95.0831 197.968Z" fill="#B82C2C"/><path d="M115.171 229.769C112.851 232.869 109.27 234.787 105.391 234.992C97.1232 235.429 90.5352 228.171 91.768 219.984L91.7714 219.962C93.8254 218.858 96.1493 218.179 98.6321 218.048C106.349 217.64 113.097 222.658 115.171 229.769Z" fill="#EF4949"/><path d="M142.905 213.688C149.566 207.643 149.881 197.277 143.599 190.839L131.947 178.898C128.465 175.329 123.654 173.753 118.999 174.27C117.202 173.618 115.264 173.301 113.274 173.376L94.1576 174.1C83.4383 174.506 75.8389 184.716 78.5261 195.101C80.7856 203.833 89.5362 209.223 98.3514 207.313L104.1 206.068C111.517 204.788 113.182 205.16 118.149 210.089L120.583 212.718C126.499 219.107 136.457 219.539 142.905 213.688Z" fill="#3D3D3D"/><path d="M15.3145 228.505L79.2805 217.088L93.6748 297.733L29.7087 309.15L15.3145 228.505Z" fill="#AEE5FF"/><path d="M7.895 251.896C7.61906 250.832 7.62645 249.714 7.91643 248.653L9.83124 241.649C10.4268 239.471 12.1424 237.778 14.3284 237.211L70.1277 222.746C71.026 222.513 71.9431 223.052 72.176 223.951L88.9383 288.609C89.1712 289.508 88.6317 290.425 87.7334 290.658L80.0455 292.651L82.809 303.31C83.0418 304.209 82.5024 305.126 81.604 305.359L31.6236 318.316C28.2547 319.189 24.8157 317.166 23.9424 313.797L7.895 251.896Z" fill="#FF4B4B"/><path d="M15.1927 239.158C13.7073 239.543 12.55 240.707 12.174 242.195L10.8009 247.627C10.4879 248.865 11.6157 249.986 12.8517 249.665L56.3081 238.399L63.814 236.52C64.709 236.296 65.6172 236.836 65.8488 237.729L81.9821 299.961C80.934 295.918 83.3616 291.792 87.4043 290.743L70.7474 226.491L70.6704 226.511L70.2488 224.885L15.1927 239.158Z" fill="white"/><path d="M45.5996 264.59L52.735 253.904C54.2726 251.601 57.3858 250.981 59.6886 252.518C61.9914 254.056 62.6117 257.169 61.0741 259.472L53.9387 270.158L45.5996 264.59Z" fill="#DA8E74"/><path d="M3.94631 284.509C2.25492 277.32 6.7118 270.121 13.901 268.43L49.7597 259.993C56.9489 258.302 64.1481 262.759 65.8394 269.948C67.5308 277.137 63.0739 284.336 55.8847 286.028L20.0261 294.464C12.8368 296.155 5.63769 291.698 3.94631 284.509Z" fill="#FFAADE"/><path d="M48.4766 260.293L62.1278 257.082C69.3156 255.391 76.5131 259.847 78.2037 267.035C79.8944 274.223 75.4381 281.42 68.2503 283.111L54.599 286.322L48.4766 260.293Z" fill="#DA8E74"/><path d="M167.287 288.352C176.977 286.63 183.509 277.315 181.877 267.547C180.246 257.78 171.068 251.258 161.378 252.98C151.688 254.702 145.155 264.017 146.787 273.785C148.419 283.553 157.597 290.075 167.287 288.352Z" fill="#FF9600"/><path d="M111.593 326.536C106.35 312.623 114.645 296.527 129.312 293.92L174.658 285.86C183.622 284.266 192.552 288.337 196.151 296.676C200.761 307.357 206.688 324.021 210.243 345.306L117.901 345.306C116.045 338.889 113.827 332.465 111.593 326.536Z" fill="#FFC6B7"/><path d="M181.062 330.387C180.97 328.663 179.497 327.341 177.773 327.433C176.049 327.526 174.726 328.999 174.819 330.723L175.318 340.004C175.41 341.728 176.883 343.05 178.607 342.958C180.331 342.865 181.653 341.392 181.561 339.668L181.062 330.387Z" fill="#CC4C4C"/><path d="M155.495 298.621L155.234 298.694C147.449 300.864 142.825 308.955 144.907 316.764C146.989 324.574 154.988 329.145 162.773 326.974L163.034 326.901C170.819 324.73 175.443 316.64 173.361 308.831C171.279 301.021 163.28 296.45 155.495 298.621Z" fill="white"/><path d="M193.047 302.474C191.338 296.062 184.771 292.309 178.38 294.092C171.988 295.874 168.193 302.516 169.902 308.927L170.793 312.269C172.502 318.68 179.069 322.433 185.46 320.651C191.852 318.869 195.647 312.226 193.938 305.815L193.047 302.474Z" fill="white"/><path d="M188.852 303.988C187.564 299.155 182.614 296.327 177.797 297.67C172.979 299.013 170.118 304.02 171.406 308.852L171.554 309.407C172.843 314.239 177.792 317.068 182.61 315.724C187.427 314.381 190.288 309.375 189 304.542L188.852 303.988Z" fill="#3D3D3D"/><path d="M181.342 319.046C182.716 321.029 182.225 323.774 180.245 325.177C178.265 326.581 175.546 326.111 174.172 324.128C172.798 322.145 173.046 315.111 173.196 315.005C173.345 314.899 179.968 317.063 181.342 319.046Z" fill="#EE9583"/><path d="M172.465 308.515C171.114 303.451 165.927 300.486 160.878 301.894C155.829 303.302 152.831 308.549 154.181 313.613L154.336 314.194C155.686 319.259 160.874 322.223 165.922 320.816C170.971 319.408 173.97 314.161 172.619 309.096L172.465 308.515Z" fill="#3D3D3D"/><path d="M145.142 320.197L171.723 325.477L167.661 345.557L141.08 340.277L145.142 320.197Z" fill="#FFC6B7"/><path d="M129.31 293.926C114.643 296.533 106.348 312.629 111.591 326.542C112 327.628 112.409 328.73 112.815 329.846L118.542 328.95C128.565 327.381 135.418 317.984 133.849 307.961L131.588 293.521L129.31 293.926Z" fill="#FFB67A"/><path d="M113.131 337.837C117.426 337.074 120.321 332.946 119.598 328.617C118.874 324.288 114.807 321.398 110.513 322.161C106.218 322.925 103.323 327.053 104.046 331.382C104.769 335.71 108.837 338.601 113.131 337.837Z" fill="#FFC6B7"/><path fill-rule="evenodd" clip-rule="evenodd" d="M169.136 311.076C170.028 311.226 170.63 312.07 170.48 312.962C170.227 314.478 169.514 316.197 167.635 317.436C166.88 317.934 165.864 317.726 165.366 316.971C164.868 316.216 165.077 315.2 165.832 314.702C166.748 314.098 167.101 313.312 167.25 312.421C167.4 311.529 168.244 310.927 169.136 311.076Z" fill="white"/><path fill-rule="evenodd" clip-rule="evenodd" d="M185.46 306.425C186.352 306.575 186.954 307.419 186.805 308.311C186.551 309.827 185.838 311.546 183.959 312.785C183.204 313.283 182.188 313.074 181.691 312.319C181.193 311.564 181.401 310.549 182.156 310.051C183.072 309.447 183.425 308.661 183.575 307.769C183.724 306.878 184.568 306.276 185.46 306.425Z" fill="white"/><path d="M155.061 311.618C157.433 311.855 159.548 310.123 159.785 307.751C160.022 305.378 158.29 303.263 155.918 303.027C153.545 302.79 151.43 304.521 151.194 306.894C150.957 309.266 152.688 311.381 155.061 311.618Z" fill="white"/><path d="M171.146 305.561C171.455 302.577 173.227 299.875 175.905 298.426C177.444 299.21 178.424 300.88 178.242 302.703C178.005 305.075 175.89 306.806 173.518 306.57C172.608 306.479 171.793 306.112 171.146 305.561Z" fill="white"/><path fill-rule="evenodd" clip-rule="evenodd" d="M62.5303 229.968C62.6278 230.343 62.4026 230.726 62.0274 230.824L25.9938 240.182C25.6186 240.28 25.2354 240.055 25.1379 239.679C25.0405 239.304 25.2657 238.921 25.6409 238.824L61.6745 229.465C62.0497 229.368 62.4329 229.593 62.5303 229.968Z" fill="#E0E0E0"/><path fill-rule="evenodd" clip-rule="evenodd" d="M48.4907 236.748C48.5882 237.124 48.363 237.507 47.9877 237.604L20.9626 244.623C20.5873 244.72 20.2041 244.495 20.1067 244.12C20.0092 243.745 20.2344 243.362 20.6097 243.264L47.6348 236.245C48.0101 236.148 48.3933 236.373 48.4907 236.748Z" fill="#E0E0E0"/><path d="M202.488 239.589C213.76 217.315 240.953 208.397 263.227 219.669C285.5 230.941 294.418 258.135 283.146 280.408C271.874 302.682 244.68 311.6 222.407 300.328C200.134 289.056 191.216 261.862 202.488 239.589Z" fill="#84D8FF"/><path d="M288.647 283.186C301.412 257.963 291.392 227.187 266.274 214.298L266.011 214.165C263.987 213.14 263.176 210.668 264.201 208.643C265.225 206.618 267.697 205.808 269.722 206.832L270.089 207.018C299.18 221.988 310.777 257.659 295.98 286.897C287.56 303.535 272.399 314.52 255.498 318.212V328.13H262.956C265.015 328.13 266.685 329.799 266.685 331.859C266.685 333.918 265.015 335.588 262.956 335.588H236.851C234.792 335.588 233.122 333.918 233.122 331.859C233.122 329.799 234.792 328.13 236.851 328.13H244.31V319.567C234.896 319.811 225.29 317.821 216.282 313.339L215.915 313.155C213.89 312.13 213.079 309.658 214.104 307.633C215.129 305.608 217.601 304.797 219.625 305.822C244.936 318.631 275.838 308.496 288.647 283.186Z" fill="#FF9600"/><path d="M246.173 305.08C238.232 305.679 230.032 304.186 222.409 300.328C218.745 298.474 215.442 296.189 212.531 293.565C212.228 291.377 212.568 289.078 213.647 286.96C216.452 281.455 223.189 279.266 228.694 282.071L241.985 288.843C247.49 291.648 249.679 298.385 246.874 303.89C246.662 304.306 246.428 304.703 246.173 305.08Z" fill="#58CC02"/><path d="M287.276 251.825C289.009 261.216 287.793 271.23 283.148 280.408C280.373 285.892 276.633 290.566 272.239 294.328L268.368 292.356C257.357 286.745 252.979 273.272 258.589 262.261C263.963 251.716 276.549 247.255 287.276 251.825Z" fill="#58CC02"/><path d="M253.463 216.06C259.792 219.371 262.29 227.169 259.039 233.549C255.767 239.971 247.907 242.525 241.484 239.253L241.05 239.031C240.886 242.293 240.048 245.573 238.469 248.671C232.476 260.435 218.08 265.112 206.317 259.119C203.056 257.457 200.34 255.15 198.244 252.433C198.986 248.07 200.386 243.744 202.489 239.589C212.154 220.491 233.525 211.211 253.463 216.06Z" fill="#58CC02"/><path fill-rule="evenodd" clip-rule="evenodd" d="M119.54 162.188C120.415 161.919 121.341 162.41 121.61 163.285C122.638 166.633 125.674 169.091 128.075 169.525C129.21 169.73 129.962 169.458 130.423 168.929C130.94 168.337 131.449 167.028 131.163 164.427C131.063 163.518 131.72 162.699 132.629 162.599C133.539 162.499 134.357 163.156 134.457 164.065C134.79 167.093 134.31 169.514 132.92 171.107C131.475 172.763 129.402 173.132 127.486 172.786C123.785 172.117 119.81 168.71 118.443 164.258C118.174 163.383 118.665 162.456 119.54 162.188Z" fill="#9E4D31"/><path d="M126.552 185.814C130.863 185.106 133.784 181.037 133.076 176.726C132.368 172.414 128.299 169.493 123.988 170.202C119.676 170.91 116.755 174.979 117.463 179.29C118.171 183.601 122.24 186.522 126.552 185.814Z" fill="#DA8E74"/><path fill-rule="evenodd" clip-rule="evenodd" d="M95.4399 161.974C96.3083 161.685 97.246 162.155 97.5343 163.024C98.6353 166.34 101.903 168.861 104.581 169.318C105.872 169.539 106.746 169.247 107.264 168.693C107.811 168.109 108.346 166.83 108.035 164.254C107.926 163.345 108.574 162.52 109.482 162.41C110.39 162.301 111.216 162.949 111.325 163.857C111.694 166.911 111.178 169.36 109.684 170.957C108.162 172.583 106.008 172.924 104.023 172.585C100.151 171.924 95.8803 168.559 94.3895 164.068C94.1012 163.199 94.5715 162.262 95.4399 161.974Z" fill="#9E4D31"/><path d="M30.8076 215.628C45.3883 210.366 55.1706 195.776 53.6929 179.619C52.8314 170.199 48.3026 161.997 41.6446 156.294C28.495 172.665 24.0359 194.99 30.8076 215.628Z" fill="#3D3D3D"/><path d="M67.754 137.08L70.7354 159.745C72.6278 174.13 62.5 187.326 48.1144 189.219C40.9728 190.158 34.1244 188.135 28.8066 184.1C32.3845 165.417 44.3104 148.55 62.6318 139.372C64.3209 138.526 66.0299 137.762 67.754 137.08Z" fill="#3D3D3D"/><path d="M66.4687 140.493L70.021 130.614L42.5431 131.319L19.7539 175.55L23.0586 199.42L32.5369 204.741L33.2746 192.927L33.4591 181.869L48.3509 178.776L63.8335 166.03L66.4687 140.493Z" fill="#3D3D3D"/><path fill-rule="evenodd" clip-rule="evenodd" d="M14.892 212.029L10.5523 207.58C9.35735 206.354 9.38187 204.393 10.607 203.198L48.7648 165.982C48.9184 165.832 49.1061 165.722 49.3117 165.661L60.5744 162.316C60.9245 162.212 61.2926 162.411 61.3966 162.761C61.4347 162.89 61.433 163.026 61.3917 163.154L57.7663 174.329C57.7001 174.533 57.5853 174.718 57.4317 174.868L19.2739 212.084C18.0487 213.279 16.0869 213.254 14.892 212.029Z" fill="#FFD300"/><path fill-rule="evenodd" clip-rule="evenodd" d="M14.8939 212.032L10.5542 207.583C9.35931 206.358 9.38382 204.396 10.609 203.201L17.1259 196.845L25.7928 205.731L19.2759 212.087C18.0507 213.282 16.0888 213.257 14.8939 212.032Z" fill="#F5A4A4"/><path fill-rule="evenodd" clip-rule="evenodd" d="M14.8924 212.031L10.5527 207.582C10.0019 207.017 9.71017 206.295 9.67578 205.565L9.8067 205.437C10.5922 204.671 11.8499 204.687 12.616 205.473L17.0523 210.021C17.8184 210.807 17.8027 212.064 17.0172 212.83L16.8867 212.958C16.1571 212.906 15.4433 212.596 14.8924 212.031Z" fill="#F39393"/><path fill-rule="evenodd" clip-rule="evenodd" d="M22.4734 208.291L14.481 200.097C14.0267 199.631 14.1208 198.802 14.6912 198.246C15.2616 197.689 16.0924 197.616 16.5467 198.082L24.5392 206.277C24.9935 206.742 24.8994 207.571 24.329 208.127C23.7585 208.684 22.9278 208.757 22.4734 208.291Z" fill="#C4C4C4"/><path fill-rule="evenodd" clip-rule="evenodd" d="M60.2552 166.655L57.0449 163.364L60.5737 162.316C60.9238 162.212 61.2919 162.411 61.3959 162.761C61.434 162.89 61.4323 163.026 61.391 163.154L60.2552 166.655Z" fill="#606060"/><path fill-rule="evenodd" clip-rule="evenodd" d="M57.6283 174.624L49.0137 165.791C49.1067 165.736 49.2065 165.692 49.311 165.661L57.8304 163.131L60.508 165.876L57.7655 174.33C57.7319 174.433 57.6858 174.532 57.6283 174.624Z" fill="#FFD8B4"/><path d="M27.6274 195.266C27.3201 194.951 27.3152 194.453 27.6082 194.132L27.642 194.097L47.7638 174.472C48.0906 174.153 48.614 174.16 48.9327 174.487C49.2401 174.802 49.2449 175.3 48.9519 175.621L48.9181 175.656L28.7963 195.281C28.4695 195.6 27.9462 195.593 27.6274 195.266Z" fill="#FFC000"/><path fill-rule="evenodd" clip-rule="evenodd" d="M26.1297 204.723L18.1373 196.528C17.6829 196.062 17.777 195.234 18.3474 194.677C18.9179 194.121 19.7486 194.048 20.203 194.514L28.1954 202.708C28.6498 203.174 28.5557 204.003 27.9852 204.559C27.4148 205.115 26.584 205.189 26.1297 204.723Z" fill="#C4C4C4"/><path fill-rule="evenodd" clip-rule="evenodd" d="M24.3016 206.504L16.3091 198.31C15.8548 197.844 15.9489 197.015 16.5193 196.459C17.0897 195.902 17.9205 195.829 18.3749 196.295L26.3673 204.49C26.8216 204.955 26.7275 205.784 26.1571 206.34C25.5867 206.897 24.7559 206.97 24.3016 206.504Z" fill="#C4C4C4"/><path d="M16.2485 201.432C15.9298 201.105 15.9363 200.582 16.2631 200.263C16.5783 199.956 17.0761 199.951 17.3971 200.244L17.432 200.278L18.8151 201.696C19.1338 202.023 19.1273 202.546 18.8005 202.865C18.4853 203.172 17.9875 203.177 17.6665 202.884L17.6316 202.85L16.2485 201.432Z" fill="#DFDFDF"/><path d="M18.0805 199.645C17.7618 199.318 17.7683 198.795 18.0952 198.476C18.4103 198.169 18.9081 198.164 19.2291 198.457L19.264 198.491L20.6471 199.909C20.9659 200.236 20.9593 200.759 20.6325 201.078C20.3174 201.385 19.8195 201.39 19.4986 201.097L19.4636 201.063L18.0805 199.645Z" fill="#DFDFDF"/><path d="M19.9067 197.864C19.588 197.537 19.5945 197.014 19.9213 196.695C20.2365 196.387 20.7343 196.383 21.0553 196.676L21.0902 196.709L22.4733 198.128C22.792 198.454 22.7855 198.978 22.4587 199.296C22.1435 199.604 21.6457 199.609 21.3247 199.316L21.2898 199.282L19.9067 197.864Z" fill="#DFDFDF"/><path d="M42.7964 200.867C48.128 201.706 53.13 198.063 53.9686 192.732C54.8073 187.4 51.165 182.398 45.8334 181.56C40.5018 180.721 35.4998 184.363 34.6611 189.695C33.8225 195.026 37.4647 200.028 42.7964 200.867Z" fill="#DA8E74"/><path fill-rule="evenodd" clip-rule="evenodd" d="M278.787 172.879L288.998 154.684L308.994 165.905L295.618 189.742C291.401 197.257 282.025 200.135 274.318 196.281L256.08 187.162L266.335 166.653L278.787 172.879Z" fill="#1CB0F6"/><path d="M240.85 173.516C240.85 165.762 247.135 159.477 254.889 159.477C262.642 159.477 268.928 165.762 268.928 173.516C268.928 181.269 262.642 187.555 254.889 187.555C247.135 187.555 240.85 181.269 240.85 173.516Z" fill="#E18E70"/><path fill-rule="evenodd" clip-rule="evenodd" d="M240.499 192.821C237.591 192.821 235.234 190.464 235.234 187.557C235.234 179.801 237.335 171.66 243.375 165.771C245.457 163.741 248.79 163.783 250.82 165.865C252.85 167.947 252.808 171.28 250.726 173.31C247.406 176.546 245.764 181.508 245.764 187.557C245.764 190.464 243.407 192.821 240.499 192.821Z" fill="#E18E70"/><path d="M373.942 228.861C390.36 214.796 392.308 190.13 378.292 173.768C364.276 157.406 339.604 155.544 323.185 169.609C306.766 183.674 304.818 208.339 318.834 224.701C332.85 241.063 357.523 242.926 373.942 228.861Z" fill="#FFB7E3"/><path d="M366.333 230.725C364.16 229.326 363.532 226.43 364.931 224.257L381.519 198.482C382.918 196.308 385.813 195.68 387.987 197.079L425.174 221.012C433.867 226.606 436.379 238.189 430.785 246.883L429.392 249.047C423.797 257.74 412.214 260.252 403.521 254.657L366.333 230.725Z" fill="#FFB7E3"/><path d="M437.116 256.369C431.758 265.21 420.247 268.033 411.406 262.675L409.205 261.341C400.364 255.983 397.541 244.472 402.899 235.631L425.82 197.811C427.16 195.601 430.037 194.895 432.248 196.235L458.461 212.122C460.671 213.462 461.377 216.34 460.038 218.55L437.116 256.369Z" fill="#FFB7E3"/><path d="M317.513 255.397C319.526 231.532 339.485 213.187 363.435 213.187C384.815 213.187 403.388 227.892 408.291 248.702L425.686 322.522C426.048 324.061 424.881 325.536 423.3 325.536H314.262C312.827 325.536 311.699 324.309 311.819 322.879L317.513 255.397Z" fill="#A570FF"/><path d="M353.425 282.178L384.546 287.806L430.742 320.259C437.535 325.03 434.159 335.709 425.858 335.709H312.336C304.375 335.709 300.785 325.742 306.919 320.665L353.425 282.178Z" fill="#593F86"/><path d="M319.467 333.8C319.467 333.283 319.886 332.864 320.403 332.864H395.746C396.263 332.864 396.682 333.283 396.682 333.8V334.97C396.682 335.487 396.263 335.906 395.746 335.906H320.403C319.886 335.906 319.467 335.487 319.467 334.97V333.8Z" fill="white"/><path d="M324.382 246.727C329.387 227.334 348.045 214.698 367.91 217.248C387.845 219.807 402.729 236.849 402.583 256.946L402.352 288.543C402.268 300.061 392.131 308.914 380.706 307.448L332.606 301.274C321.146 299.803 313.571 288.618 316.458 277.43L324.382 246.727Z" fill="#FFC6B7"/><path d="M392.063 263.052C393.015 258.18 397.736 255.003 402.608 255.955L405.816 256.581C410.687 257.534 413.865 262.255 412.913 267.126C411.961 271.998 407.24 275.176 402.368 274.224L399.16 273.597C394.289 272.645 391.111 267.924 392.063 263.052Z" fill="#FFC6B7"/><path d="M404.919 256.668C404.715 256.614 404.512 256.559 404.309 256.501L373.669 247.746C358.471 243.404 349.585 227.718 353.577 212.506C357.83 212.033 362.208 212.146 366.607 212.91C388.2 216.657 404.079 234.994 404.919 256.668Z" fill="#A570FF"/><path d="M365.655 262.707C366.471 255.987 372.565 251.318 379.266 252.277L389.416 253.731C390.086 253.827 390.563 254.45 390.481 255.121L388.974 267.525C388.158 274.245 382.064 278.914 375.363 277.955L370.066 277.196C366.716 276.716 364.331 273.604 364.739 270.244L365.655 262.707Z" fill="white"/><path d="M388.471 274.805C379.642 272.156 367.86 277.163 363.072 279.998L389.877 290.081C393.087 286.093 397.3 277.454 388.471 274.805Z" fill="#FFC6B7"/><path fill-rule="evenodd" clip-rule="evenodd" d="M357.398 268.784C358.098 268.214 358.204 267.185 357.634 266.485C354.585 262.738 348.909 259.337 340.623 259.104C339.721 259.079 338.969 259.79 338.944 260.692C338.919 261.594 339.629 262.346 340.532 262.371C347.935 262.579 352.693 265.591 355.099 268.548C355.669 269.248 356.698 269.354 357.398 268.784Z" fill="#C9705E"/><path d="M361.871 277.799C360.621 280.111 357.757 280.984 355.475 279.749C353.192 278.515 352.355 275.641 353.606 273.329C354.856 271.017 361.716 267.798 361.888 267.891C362.06 267.984 363.121 275.487 361.871 277.799Z" fill="#EE9583"/><path d="M370.077 260.198C370.413 257.65 372.751 255.857 375.299 256.193C377.847 256.529 379.64 258.867 379.304 261.415L379.102 262.947C378.765 265.495 376.427 267.288 373.879 266.951C371.331 266.615 369.538 264.277 369.875 261.729L370.077 260.198Z" fill="#3D3D3D"/><path d="M389.76 261.081C385.613 260.016 380.835 259.038 376.759 258.859C370.279 258.573 367.312 259.313 366.463 259.585C368.487 254.608 373.665 251.475 379.268 252.277L389.418 253.731C390.088 253.827 390.565 254.45 390.484 255.122L389.76 261.081Z" fill="#A570FF"/><path d="M317.07 263.456C317.562 257.972 319.156 252.645 321.758 247.793L334.425 224.176L344.698 217.841L359.586 216.862C359.586 216.862 352.887 229.077 352.09 237.659C348.405 277.344 351.867 299.21 353.374 306.284C353.635 307.509 352.591 308.675 351.35 308.507L313.492 303.387L317.07 263.456Z" fill="#A570FF"/><path d="M319.529 291.847L313.119 298.36L331.318 316.27L337.728 309.757L319.529 291.847Z" fill="#A7E2FF"/><path d="M324.499 299.457C324.28 299.241 323.928 299.244 323.713 299.463L320.802 302.421C320.587 302.639 320.59 302.991 320.809 303.207L339.402 321.505C339.621 321.721 339.973 321.718 340.188 321.499L343.099 318.541C343.314 318.322 343.311 317.97 343.093 317.755L324.499 299.457Z" fill="#0B6189"/><path fill-rule="evenodd" clip-rule="evenodd" d="M345.426 318.341C345.236 318.035 344.81 317.987 344.558 318.244L339.919 322.957C339.666 323.214 339.722 323.642 340.033 323.825L348.901 329.057C349.121 329.186 349.401 329.15 349.58 328.968L350.766 327.763C350.946 327.58 350.977 327.298 350.842 327.08L345.426 318.341Z" fill="#A7E2FF"/><path fill-rule="evenodd" clip-rule="evenodd" d="M342.473 316.18C342.277 315.886 341.861 315.846 341.614 316.098L340.328 317.404C340.12 317.615 340.114 317.952 340.314 318.17L348.12 326.671C348.584 327.175 349.372 326.558 348.992 325.987L342.473 316.18Z" fill="#D7F2FF"/><path d="M334.555 305.857C334.227 305.534 333.699 305.538 333.376 305.866L327.359 311.981C327.036 312.309 327.04 312.837 327.368 313.16L338.444 324.06C338.772 324.383 339.3 324.379 339.623 324.05L345.641 317.936C345.963 317.608 345.959 317.08 345.631 316.757L334.555 305.857Z" fill="#1899D6"/><path d="M333.985 308.017C333.767 307.802 333.415 307.805 333.199 308.023L332.037 309.205C331.821 309.424 331.824 309.776 332.043 309.991L341.537 319.334C341.756 319.55 342.108 319.547 342.323 319.328L343.486 318.147C343.701 317.928 343.698 317.576 343.479 317.361L333.985 308.017Z" fill="#1CB0F6"/><path d="M317.3 314.438C317.045 307.921 322.12 302.432 328.637 302.176C335.153 301.921 340.643 306.996 340.898 313.513C341.154 320.029 336.078 325.519 329.562 325.774C323.045 326.03 317.556 320.954 317.3 314.438Z" fill="#FFC6B7"/><path fill-rule="evenodd" clip-rule="evenodd" d="M328.169 306.325C328.086 304.204 329.738 302.418 331.858 302.335C335.215 302.203 337.871 302.388 340.491 303.9C341.692 304.593 342.742 305.481 343.758 306.43C344.448 307.073 345.228 307.848 346.087 308.701C346.465 309.076 346.857 309.466 347.264 309.866C348.776 311.355 348.795 313.789 347.306 315.301C345.817 316.813 343.384 316.832 341.871 315.343C341.388 314.867 340.956 314.438 340.562 314.047C339.759 313.249 339.114 312.608 338.514 312.048C337.643 311.235 337.095 310.813 336.65 310.557C335.979 310.17 335.156 309.897 332.159 310.014C330.039 310.097 328.252 308.446 328.169 306.325Z" fill="#FFC6B7"/><path d="M385.063 302.04C388.872 296.831 396.182 295.695 401.391 299.504L413.353 308.249C418.562 312.058 419.697 319.368 415.889 324.577C412.08 329.786 404.77 330.921 399.561 327.113L387.599 318.367C382.39 314.559 381.255 307.249 385.063 302.04Z" fill="#593F86"/><path d="M376.049 333.795C376.049 326.755 381.755 321.049 388.795 321.049H399.203V335.706H376.049V333.795Z" fill="#FFC6B7"/><path d="M0.0800781 338.508C0.0800781 336.897 1.38614 335.591 2.99725 335.591H463.728C465.339 335.591 466.645 336.897 466.645 338.508V349.204C466.645 350.815 465.339 352.121 463.728 352.121H2.99726C1.38615 352.121 0.0800781 350.815 0.0800781 349.204V338.508Z" fill="#CD7900"/><path d="M311.736 286.901C310.7 285.882 309.035 285.895 308.016 286.931C306.996 287.967 307.01 289.632 308.045 290.651L313.395 295.916C314.43 296.935 316.096 296.922 317.115 295.886C318.134 294.851 318.121 293.185 317.085 292.166L311.736 286.901Z" fill="#1487BD"/><path d="M316.356 287.947C316.028 287.624 315.5 287.628 315.177 287.956L309.159 294.07C308.836 294.399 308.841 294.926 309.169 295.249L314.904 300.893C315.232 301.216 315.76 301.212 316.083 300.884L322.1 294.77C322.423 294.441 322.419 293.914 322.091 293.591L316.356 287.947Z" fill="#1899D6"/><path fill-rule="evenodd" clip-rule="evenodd" d="M309.117 296.58C308.514 295.87 307.43 295.83 306.776 296.494C306.161 297.119 306.169 298.124 306.794 298.739L314.94 306.756C315.381 307.189 316.095 307.164 316.503 306.7C316.855 306.299 316.861 305.7 316.515 305.293L309.117 296.58Z" fill="#1899D6"/><path d="M311.507 293.668C310.961 293.131 310.082 293.138 309.544 293.684L306.635 296.64C306.097 297.186 306.104 298.065 306.651 298.603C307.197 299.14 308.076 299.133 308.613 298.587L311.522 295.631C312.06 295.084 312.053 294.206 311.507 293.668Z" fill="#1899D6"/><path d="M315.591 289.914C315.372 289.698 315.02 289.701 314.805 289.92L313.642 291.101C313.427 291.32 313.43 291.672 313.648 291.887L318.197 296.364C318.416 296.579 318.768 296.576 318.983 296.358L320.146 295.176C320.361 294.957 320.358 294.605 320.139 294.39L315.591 289.914Z" fill="#1CB0F6"/><path fill-rule="evenodd" clip-rule="evenodd" d="M378.935 280.313C379.832 280.416 380.685 280.778 381.498 281.364C382.23 281.892 382.396 282.913 381.868 283.645C381.34 284.377 380.319 284.543 379.587 284.015C379.142 283.695 378.808 283.589 378.563 283.56C378.319 283.532 378.05 283.569 377.718 283.706C376.963 284.017 376.154 284.708 375.035 285.73C374.974 285.786 374.911 285.844 374.847 285.902C373.859 286.807 372.664 287.902 371.305 288.66C369.79 289.506 367.984 289.99 365.881 289.469C365.004 289.253 364.47 288.367 364.687 287.49C364.904 286.614 365.79 286.08 366.666 286.297C367.778 286.572 368.734 286.352 369.712 285.806C370.728 285.239 371.664 284.383 372.736 283.404C372.767 283.375 372.799 283.346 372.831 283.317L372.837 283.312C373.852 282.384 375.088 281.255 376.473 280.684C377.211 280.38 378.038 280.21 378.935 280.313Z" fill="#EE9583"/><path d="M303.09 164.308L341.418 160.859C347.24 160.335 352.555 164.191 353.864 169.888L344.286 185.102C336.322 197.753 317.471 196.423 311.361 182.779L303.09 164.308Z" fill="#FF86D0"/><path fill-rule="evenodd" clip-rule="evenodd" d="M139.922 145.944C141.145 148.689 139.911 151.905 137.166 153.128C134.58 154.28 131.881 155.169 128.777 155.101C125.707 155.034 122.838 154.044 119.832 152.572C117.133 151.25 116.017 147.99 117.339 145.292C118.661 142.593 121.921 141.477 124.619 142.799C126.963 143.948 128.192 144.203 129.016 144.221C129.806 144.239 130.794 144.053 132.738 143.188C135.483 141.965 138.699 143.199 139.922 145.944Z" fill="#3D3D3D"/><path d="M292.323 156.419C289.505 149.201 294.356 141.286 302.068 140.522L329.652 137.789C334.388 137.319 338.936 139.766 341.155 143.975L353.395 167.197L333.201 184.348C322.177 193.711 305.213 189.43 299.952 175.957L292.323 156.419Z" fill="#1CB0F6"/><path fill-rule="evenodd" clip-rule="evenodd" d="M106.749 140.383C107.182 143.357 105.122 146.118 102.148 146.551C98.6972 147.053 96.9629 147.847 94.6774 150.004C92.492 152.066 89.0483 151.967 86.9859 149.781C84.9234 147.596 85.0231 144.152 87.2086 142.09C91.3192 138.21 95.2021 136.564 100.582 135.782C103.556 135.349 106.317 137.41 106.749 140.383Z" fill="#3D3D3D"/><path d="M277.119 139.98L312.409 118.468C317.879 115.134 325.013 116.819 328.413 122.247L335.615 133.745L317.184 158.23C308.992 169.112 292.29 167.881 285.784 155.914L277.119 139.98Z" fill="#FFB7E3"/><path d="M327.731 133.757C322.346 132.411 323.806 122.059 329.347 122.375C356.154 123.903 371.79 102.252 377.543 92.2619C378.928 89.8552 382.226 89.1102 384.375 90.8694L404.736 107.535C406.431 108.923 406.754 111.351 405.295 112.985C397.652 121.541 372.066 144.835 327.731 133.757Z" fill="#FFB7E3"/><path d="M231.557 100.121C231.557 67.7714 257.904 41.5469 290.254 41.5469C322.603 41.5469 348.95 67.7714 348.95 100.121C348.95 132.471 322.603 158.695 290.254 158.695C257.904 158.695 231.557 132.471 231.557 100.121Z" fill="#FFB7E3"/><path d="M296.665 158.351C294.559 158.58 292.42 158.698 290.254 158.698C288.269 158.698 286.308 158.599 284.373 158.406C295.045 154.15 303.462 148.371 309.843 141.283C317.521 132.753 321.991 122.633 323.858 111.578C324.1 110.147 325.456 109.183 326.887 109.425C328.319 109.667 329.283 111.023 329.041 112.454C327.016 124.439 322.141 135.477 313.75 144.799C309.059 150.01 303.382 154.55 296.665 158.351Z" fill="#FF9BD8"/><path fill-rule="evenodd" clip-rule="evenodd" d="M272.244 64.8353C295.822 58.0397 320.444 71.6439 327.239 95.221C334.035 118.798 320.431 143.42 296.853 150.216C273.276 157.011 248.654 143.407 241.859 119.83C235.063 96.2528 248.667 71.6309 272.244 64.8353Z" fill="#E18E70"/><path d="M281.134 106.759C279.041 111.985 281.581 117.915 286.807 120.004C290.251 121.382 294.004 120.746 296.761 118.656L296.759 118.704L296.977 118.486C297.538 118.038 298.055 117.526 298.516 116.957L299.877 115.628C301.207 114.343 302.442 113.187 303.584 112.16C304.209 111.724 304.776 111.221 305.28 110.665C305.476 110.478 305.626 110.301 305.729 110.131C307.707 107.622 308.477 104.227 307.505 100.932C305.912 95.5355 300.243 92.4541 294.844 94.0497C288.429 95.9461 283.668 100.432 281.134 106.759Z" fill="white"/><path fill-rule="evenodd" clip-rule="evenodd" d="M289.199 103.606C292.785 102.572 296.53 104.642 297.564 108.228L298.465 111.355C299.499 114.941 297.429 118.686 293.843 119.72C290.257 120.754 286.511 118.684 285.478 115.098L284.577 111.971C284.54 111.845 284.507 111.718 284.479 111.591C284.613 111.569 284.747 111.538 284.88 111.499C287.051 110.874 288.303 108.601 287.675 106.424C287.501 105.822 287.203 105.29 286.815 104.849C287.496 104.294 288.3 103.865 289.199 103.606Z" fill="#3D3D3D"/><path fill-rule="evenodd" clip-rule="evenodd" d="M272.246 64.8353C281.056 62.2959 290.013 62.6051 298.13 65.219L297.717 65.9825L297.29 66.7671C290.339 79.4856 277.672 99.9173 247.161 107.596C245.013 108.136 242.194 108.167 240.113 107.931C239.924 88.4722 252.635 70.4875 272.246 64.8353Z" fill="#3D3D3D"/><path d="M275.64 108.341C280.194 111.651 281.2 118.023 277.887 122.573C275.704 125.572 272.189 127.031 268.743 126.729L268.769 126.77L268.469 126.701C267.756 126.62 267.045 126.462 266.352 126.225L264.492 125.825C262.683 125.444 261.022 125.123 259.508 124.862C258.747 124.825 257.999 124.701 257.277 124.498C257.012 124.445 256.791 124.374 256.612 124.286C253.603 123.214 251.143 120.75 250.213 117.443C248.689 112.026 251.848 106.401 257.269 104.878C263.709 103.069 270.127 104.332 275.64 108.341Z" fill="white"/><path fill-rule="evenodd" clip-rule="evenodd" d="M266.581 109.986C270.065 108.982 273.699 110.906 274.851 114.304L274.946 114.608L275.847 117.734C276.881 121.321 274.812 125.066 271.225 126.1C267.741 127.104 264.107 125.18 262.955 121.781L262.86 121.478L261.959 118.351C261.866 118.029 261.798 117.705 261.754 117.381C262.465 117.586 263.239 117.598 264 117.378C266.171 116.752 267.423 114.48 266.795 112.303C266.571 111.525 266.137 110.864 265.573 110.364C265.893 110.214 266.23 110.087 266.581 109.986Z" fill="#3D3D3D"/><path d="M252.233 132.554L249.32 125.362L249.569 125.265L249.741 125.201L249.921 125.135L250.164 125.049L250.422 124.96L250.557 124.914L250.909 124.798L250.982 124.774C252.219 124.376 253.611 123.994 255.135 123.66C259.491 122.704 264.078 122.303 268.716 122.711C275.433 123.302 281.664 125.552 287.057 129.8L287.241 129.945L282.398 136.008C278.228 132.677 273.383 130.911 268.035 130.441C264.25 130.108 260.433 130.441 256.798 131.239C255.605 131.501 254.516 131.795 253.554 132.098L253.25 132.196L253.034 132.267L252.832 132.336L252.645 132.402L252.338 132.514L252.233 132.554Z" fill="#E18E70"/><path fill-rule="evenodd" clip-rule="evenodd" d="M279.902 130.36C282.244 130.549 284.294 128.827 284.481 126.513C284.667 124.199 280.867 118.385 280.867 118.385C280.867 118.385 276.185 123.515 275.998 125.829C275.811 128.143 277.559 130.171 279.902 130.36Z" fill="#9E4D31"/><path d="M319.437 116.082L317.542 105.453L317.362 105.487L317.188 105.522L316.983 105.565L316.725 105.621C316.637 105.641 316.546 105.661 316.454 105.683L316.168 105.751L315.792 105.844L315.714 105.863C314.41 106.196 312.982 106.628 311.466 107.173C307.134 108.731 302.902 110.902 299.06 113.817C293.462 118.064 289.2 123.523 286.79 130.288L286.711 130.511L296.906 134.066C298.559 129.327 301.536 125.491 305.586 122.419C308.48 120.223 311.754 118.543 315.12 117.333C316.225 116.935 317.26 116.618 318.193 116.374L318.487 116.299L318.695 116.248L318.89 116.201L319.071 116.16L319.313 116.108L319.437 116.082Z" fill="#E18E70"/><path d="M286.227 134.525C285.566 133.815 285.95 132.656 286.903 132.479C290.947 131.731 294.348 129.009 295.965 125.228L296.836 123.193C297.312 122.079 298.764 121.859 299.493 122.826C302.692 127.065 309.081 136.856 304.256 141.944C300.23 146.189 293.837 142.702 289.851 138.419L286.227 134.525Z" fill="#881B1B"/><path d="M304.454 131.033C306.175 134.959 306.899 139.16 304.254 141.949C302.858 143.421 301.178 143.963 299.412 143.865C298.74 142.597 298.359 141.151 298.359 139.616C298.359 135.646 300.905 132.27 304.454 131.033Z" fill="#B12E2E"/><path d="M320.98 134.881C318.835 128.924 321.925 122.355 327.883 120.21C333.84 118.064 340.409 121.154 342.554 127.112L370.472 204.636L348.898 212.405L320.98 134.881Z" fill="#1CB0F6"/><path d="M383.565 210.387C382.952 210.083 382.343 209.794 381.738 209.52C381.336 207.764 380.042 206.26 378.201 205.674C375.226 204.728 372.544 204.202 369.835 204.275C367.918 204.327 366.17 204.673 364.477 205.198C360.548 204.962 356.645 205.182 352.659 205.667C352.318 205.708 351.99 205.781 351.675 205.883C351.489 205.876 351.302 205.88 351.112 205.894C347.994 206.119 345.048 207.171 342.779 208.228C340.483 209.298 338.537 210.534 337.339 211.445C335.025 213.206 334.576 216.509 336.337 218.823C338.098 221.137 341.401 221.586 343.715 219.825C344.306 219.375 345.604 218.528 347.224 217.773C348.871 217.006 350.512 216.494 351.872 216.396C352.16 216.375 352.441 216.331 352.713 216.267C352.91 216.319 353.113 216.36 353.32 216.39C356.083 216.786 357.93 217.329 359.585 218.226C361.269 219.139 363.09 220.599 365.513 223.288C367.459 225.448 370.788 225.622 372.948 223.676C374.617 222.172 375.1 219.842 374.335 217.864C375.822 218.401 377.332 219.048 378.879 219.817C381.483 221.11 384.643 220.049 385.937 217.445C387.23 214.841 386.168 211.681 383.565 210.387Z" fill="#DA8E74"/><path fill-rule="evenodd" clip-rule="evenodd" d="M444.888 193.636C444.963 190.541 447.532 188.094 450.626 188.169L476.611 188.797C479.706 188.872 482.153 191.441 482.078 194.535C482.004 197.629 479.435 200.076 476.341 200.002L450.355 199.373C447.261 199.299 444.814 196.73 444.888 193.636Z" fill="#FF86D0"/><path opacity="0.4" d="M180.085 127.91C179.281 127.106 179.281 125.803 180.085 124.999L185.18 119.905C185.984 119.101 187.287 119.101 188.091 119.905L193.185 124.999C193.989 125.803 193.989 127.106 193.185 127.91L188.091 133.004C187.287 133.808 185.984 133.808 185.18 133.004L180.085 127.91Z" fill="#A5ED6E"/><path d="M227.144 94.3336L255.488 93.5306C256.993 93.5041 258.089 94.9541 257.653 96.3942C255.558 103.313 249.158 108.179 241.74 108.309C234.322 108.44 227.732 103.804 225.361 96.9632C224.868 95.5394 225.639 94.3601 227.144 94.3336Z" fill="#3D3D3D"/><path fill-rule="evenodd" clip-rule="evenodd" d="M231.939 94.242C241.632 93.821 244.279 87.7373 247.476 83.1309C249.607 80.06 253.525 81.1418 259.229 86.3763L250.644 97.6588L234.818 99.1489C226.436 96.1584 225.477 94.5227 231.939 94.242Z" fill="#3D3D3D"/><path opacity="0.5" fill-rule="evenodd" clip-rule="evenodd" d="M201.929 83.9336L205.744 96.224L214.212 100.118C215.074 100.514 215.451 101.534 215.055 102.396C214.884 102.769 214.585 103.068 214.212 103.239L205.744 107.133L201.929 119.424C201.648 120.33 200.686 120.836 199.78 120.555C199.239 120.387 198.816 119.964 198.648 119.424L194.834 107.133L186.366 103.239C185.504 102.843 185.126 101.823 185.523 100.961C185.694 100.589 185.993 100.29 186.366 100.118L194.834 96.224L198.648 83.9336C198.93 83.0276 199.892 82.5211 200.798 82.8022C201.338 82.97 201.762 83.3931 201.929 83.9336Z" fill="#A5ED6E"/><path opacity="0.25" d="M215.228 112.888C214.625 112.285 214.625 111.308 215.228 110.705L219.23 106.702C219.833 106.099 220.811 106.099 221.414 106.702L225.416 110.705C226.019 111.308 226.019 112.285 225.416 112.888L221.414 116.891C220.811 117.494 219.833 117.494 219.23 116.891L215.228 112.888Z" fill="#A5ED6E"/><ellipse cx="94.683" cy="59.6752" rx="4.41155" ry="4.41155" fill="white"/><ellipse cx="134.878" cy="49.8725" rx="4.41155" ry="4.41155" fill="white"/></svg>